HIERARCHY
ROOT reference
{
  OFFSET 0 0 0
  CHANNELS 6 Xposition Yposition Zposition Zrotation Xrotation Yrotation
  JOINT Hips
  {
    OFFSET 352.076 86.5813 226.294
    CHANNELS 3 Zrotation Xrotation Yrotation
    JOINT RightUpLeg
    {
      OFFSET -9.24446 -1.53332 -0.0100408
      CHANNELS 3 Zrotation Xrotation Yrotation
      JOINT RightLeg
      {
        OFFSET 0.0379954 -41.8775 0.0555708
        CHANNELS 3 Zrotation Xrotation Yrotation
        JOINT RightFoot
        {
          OFFSET 0.0737403 -43.7597 -0.208372
          CHANNELS 3 Zrotation Xrotation Yrotation
          End Site
          {
            OFFSET 0 -7.69 17.5
          }
        }
      }
    }
    JOINT LeftUpLeg
    {
      OFFSET 9.31004 -1.65148 -0.0333589
      CHANNELS 3 Zrotation Xrotation Yrotation
      JOINT LeftLeg
      {
        OFFSET 0.0881386 -41.8624 -0.0616493
        CHANNELS 3 Zrotation Xrotation Yrotation
        JOINT LeftFoot
        {
          OFFSET 0.763074 -39.9619 0.249975
          CHANNELS 3 Zrotation Xrotation Yrotation
          End Site
          {
            OFFSET 0 -7.69 17.5
          }
        }
      }
    }
    JOINT Spine
    {
      OFFSET 0.105097 14.2958 0.096313
      CHANNELS 3 Zrotation Xrotation Yrotation
      JOINT Spine1
      {
        OFFSET 0.0609256 9.72986 0.0283835
        CHANNELS 3 Zrotation Xrotation Yrotation
        JOINT Spine2
        {
          OFFSET 0.0349843 10.1145 -0.0203086
          CHANNELS 3 Zrotation Xrotation Yrotation
          JOINT Spine3
          {
            OFFSET 0.0323734 9.71864 0.0196425
            CHANNELS 3 Zrotation Xrotation Yrotation
            JOINT Neck
            {
              OFFSET 0.219168 10.3708 0.0833364
              CHANNELS 3 Zrotation Xrotation Yrotation
              JOINT Head
              {
                OFFSET 0.200748 9.48753 0.0966912
                CHANNELS 3 Zrotation Xrotation Yrotation
                End Site
                {
                  OFFSET 0 15.95 0
                }
              }
            }
            JOINT RightShoulder
            {
              OFFSET -3.14734 6.94135 0.063802
              CHANNELS 3 Zrotation Xrotation Yrotation
              JOINT RightArm
              {
                OFFSET -12.765 0.137663 0.228635
                CHANNELS 3 Zrotation Xrotation Yrotation
                JOINT RightForeArm
                {
                  OFFSET -26.5344 -0.389186 -0.00603507
                  CHANNELS 3 Zrotation Xrotation Yrotation
                  JOINT RightHand
                  {
                    OFFSET -26.1352 -0.0585664 0.0704552
                    CHANNELS 3 Zrotation Xrotation Yrotation
                    JOINT RightHandThumb1
                    {
                      OFFSET -2.48905 0.190105 3.12053
                      CHANNELS 3 Zrotation Xrotation Yrotation
                      JOINT RightHandThumb2
                      {
                        OFFSET -3.68274 0 0
                        CHANNELS 3 Zrotation Xrotation Yrotation
                        JOINT RightHandThumb3
                        {
                          OFFSET -2.55832 0 0
                          CHANNELS 3 Zrotation Xrotation Yrotation
                          End Site
                          {
                            OFFSET -2.194 0 0
                          }
                        }
                      }
                    }
                    JOINT RightInHandIndex
                    {
                      OFFSET -3.22368 0.508421 1.97842
                      CHANNELS 3 Zrotation Xrotation Yrotation
                      JOINT RightHandIndex1
                      {
                        OFFSET -5.21684 -0.091368 0.999158
                        CHANNELS 3 Zrotation Xrotation Yrotation
                        JOINT RightHandIndex2
                        {
                          OFFSET -3.61937 0 0
                          CHANNELS 3 Zrotation Xrotation Yrotation
                          JOINT RightHandIndex3
                          {
                            OFFSET -2.0521 0 0
                            CHANNELS 3 Zrotation Xrotation Yrotation
                            End Site
                            {
                              OFFSET -1.805 0 0
                            }
                          }
                        }
                      }
                    }
                    JOINT RightInHandMiddle
                    {
                      OFFSET -3.38211 0.517263 0.756737
                      CHANNELS 3 Zrotation Xrotation Yrotation
                      JOINT RightHandMiddle1
                      {
                        OFFSET -5.17411 -0.084 0.313895
                        CHANNELS 3 Zrotation Xrotation Yrotation
                        JOINT RightHandMiddle2
                        {
                          OFFSET -3.94947 0 0
                          CHANNELS 3 Zrotation Xrotation Yrotation
                          JOINT RightHandMiddle3
                          {
                            OFFSET -2.47579 0 0
                            CHANNELS 3 Zrotation Xrotation Yrotation
                            End Site
                            {
                              OFFSET -1.975 0 0
                            }
                          }
                        }
                      }
                    }
                    JOINT RightInHandRing
                    {
                      OFFSET -3.36516 0.537895 -0.128947
                      CHANNELS 3 Zrotation Xrotation Yrotation
                      JOINT RightHandRing1
                      {
                        OFFSET -4.63474 -0.022105 -0.478947
                        CHANNELS 3 Zrotation Xrotation Yrotation
                        JOINT RightHandRing2
                        {
                          OFFSET -3.44238 0 0
                          CHANNELS 3 Zrotation Xrotation Yrotation
                          JOINT RightHandRing3
                          {
                            OFFSET -2.3881 0 0
                            CHANNELS 3 Zrotation Xrotation Yrotation
                            End Site
                            {
                              OFFSET -1.857 0 0
                            }
                          }
                        }
                      }
                    }
                    JOINT RightInHandPinky
                    {
                      OFFSET -3.16105 0.469368 -1.20179
                      CHANNELS 3 Zrotation Xrotation Yrotation
                      JOINT RightHandPinky1
                      {
                        OFFSET -4.14105 -0.022105 -1.09053
                        CHANNELS 3 Zrotation Xrotation Yrotation
                        JOINT RightHandPinky2
                        {
                          OFFSET -2.75653 0 0
                          CHANNELS 3 Zrotation Xrotation Yrotation
                          JOINT RightHandPinky3
                          {
                            OFFSET -1.74189 0 0
                            CHANNELS 3 Zrotation Xrotation Yrotation
                            End Site
                            {
                              OFFSET -1.645 0 0
                            }
                          }
                        }
                      }
                    }
                  }
                }
              }
            }
            JOINT LeftShoulder
            {
              OFFSET 3.26179 6.89719 -0.0373062
              CHANNELS 3 Zrotation Xrotation Yrotation
              JOINT LeftArm
              {
                OFFSET 12.4839 0.0196156 -0.0323257
                CHANNELS 3 Zrotation Xrotation Yrotation
                JOINT LeftForeArm
                {
                  OFFSET 26.5039 -0.120667 0.247609
                  CHANNELS 3 Zrotation Xrotation Yrotation
                  JOINT LeftHand
                  {
                    OFFSET 25.9984 -0.032285 0.00286418
                    CHANNELS 3 Zrotation Xrotation Yrotation
                    JOINT LeftHandThumb1
                    {
                      OFFSET 2.48905 0.190105 3.12053
                      CHANNELS 3 Zrotation Xrotation Yrotation
                      JOINT LeftHandThumb2
                      {
                        OFFSET 3.68274 0 0
                        CHANNELS 3 Zrotation Xrotation Yrotation
                        JOINT LeftHandThumb3
                        {
                          OFFSET 2.55832 0 0
                          CHANNELS 3 Zrotation Xrotation Yrotation
                          End Site
                          {
                            OFFSET 2.194 0 0
                          }
                        }
                      }
                    }
                    JOINT LeftInHandIndex
                    {
                      OFFSET 3.22368 0.508421 1.97842
                      CHANNELS 3 Zrotation Xrotation Yrotation
                      JOINT LeftHandIndex1
                      {
                        OFFSET 5.21684 -0.091368 0.999158
                        CHANNELS 3 Zrotation Xrotation Yrotation
                        JOINT LeftHandIndex2
                        {
                          OFFSET 3.61937 0 0
                          CHANNELS 3 Zrotation Xrotation Yrotation
                          JOINT LeftHandIndex3
                          {
                            OFFSET 2.0521 0 0
                            CHANNELS 3 Zrotation Xrotation Yrotation
                            End Site
                            {
                              OFFSET 1.805 0 0
                            }
                          }
                        }
                      }
                    }
                    JOINT LeftInHandMiddle
                    {
                      OFFSET 3.38211 0.517263 0.756737
                      CHANNELS 3 Zrotation Xrotation Yrotation
                      JOINT LeftHandMiddle1
                      {
                        OFFSET 5.17411 -0.084 0.313895
                        CHANNELS 3 Zrotation Xrotation Yrotation
                        JOINT LeftHandMiddle2
                        {
                          OFFSET 3.94947 0 0
                          CHANNELS 3 Zrotation Xrotation Yrotation
                          JOINT LeftHandMiddle3
                          {
                            OFFSET 2.47579 0 0
                            CHANNELS 3 Zrotation Xrotation Yrotation
                            End Site
                            {
                              OFFSET 1.975 0 0
                            }
                          }
                        }
                      }
                    }
                    JOINT LeftInHandRing
                    {
                      OFFSET 3.36516 0.537895 -0.128947
                      CHANNELS 3 Zrotation Xrotation Yrotation
                      JOINT LeftHandRing1
                      {
                        OFFSET 4.63474 -0.022105 -0.478947
                        CHANNELS 3 Zrotation Xrotation Yrotation
                        JOINT LeftHandRing2
                        {
                          OFFSET 3.44238 0 0
                          CHANNELS 3 Zrotation Xrotation Yrotation
                          JOINT LeftHandRing3
                          {
                            OFFSET 2.3881 0 0
                            CHANNELS 3 Zrotation Xrotation Yrotation
                            End Site
                            {
                              OFFSET 1.857 0 0
                            }
                          }
                        }
                      }
                    }
                    JOINT LeftInHandPinky
                    {
                      OFFSET 3.16105 0.469368 -1.20179
                      CHANNELS 3 Zrotation Xrotation Yrotation
                      JOINT LeftHandPinky1
                      {
                        OFFSET 4.14105 -0.022105 -1.09053
                        CHANNELS 3 Zrotation Xrotation Yrotation
                        JOINT LeftHandPinky2
                        {
                          OFFSET 2.75653 0 0
                          CHANNELS 3 Zrotation Xrotation Yrotation
                          JOINT LeftHandPinky3
                          {
                            OFFSET 1.74189 0 0
                            CHANNELS 3 Zrotation Xrotation Yrotation
                            End Site
                            {
                              OFFSET 1.645 0 0
                            }
                          }
                        }
                      }
                    }
                  }
                }
              }
            }
          }
        }
      }
    }
  }
}
MOTION
Frames: 2
Frame Time: 0.00833333
3.000000000000000000e+02 0.000000000000000000e+00 0.000000000000000000e+00 0.000000000000000000e+00 0.000000000000000000e+00 0.000000000000000000e+00 5.218021945279284306e-03 4.911493132677278994e-02 2.175872560866997166e-02 -3.912508043382559308e-02 2.397878862570236146e-03 -5.891479734042123773e-02 -9.389777722345423253e-03 2.963911813961611977e-02 4.673105352584155936e-02 4.066517658652462480e-02 -4.072638462843713308e-02 -5.825813977791856335e-02 2.392722956904984322e-02 -1.329064537077182147e-02 1.791277021869130959e-02 1.052123616561428388e-01 -2.533346734944152967e-02 -1.074079214807325267e-01 -6.612383945268224261e-05 3.918606891355007338e-02 3.569276245894299759e-02 3.997818514688233904e-02 7.268190882337688917e-03 -4.590338255074891127e-02 9.545600586959539571e-03 6.045131783772092829e-03 -1.344363474607282449e-02 1.643193473427413676e-02 1.241955543450288212e-02 -2.205249215183993985e-02 -2.026164720437046395e-03 4.524401084299852307e-04 1.074914528745877108e-03 -3.285467905504325849e-03 -1.676088460514187171e-03 -4.763865743130833719e-02 -4.503424790972142266e-02 3.138012642279254527e-02 8.335580373768407270e-02 1.940271644679144453e-02 2.135351920297220291e-02 -7.586947824846418387e-02 -2.286077465462872660e-02 1.208225523137737706e-01 1.351941708656157759e-01 -4.265457949073515054e-01 -5.166039407395067729e-01 2.422503373007504346e-01 -1.318252139377588117e-01 -6.814011295237462074e-01 -2.950942144050525129e-01 0.000000000000000000e+00 0.000000000000000000e+00 0.000000000000000000e+00 1.838321177686741960e-15 3.306877219151824558e-15 0.000000000000000000e+00 9.487513146771048783e-17 1.331270536005290553e-15 0.000000000000000000e+00 -2.100456228956603367e-15 -9.028727770935568811e-16 -1.351428510723838921e-16 0.000000000000000000e+00 0.000000000000000000e+00 0.000000000000000000e+00 0.000000000000000000e+00 -5.851565899664346088e-16 1.700333394994485607e-15 0.000000000000000000e+00 -1.528548569359019078e-16 -1.257344249086274305e-15 -2.100456228956603367e-15 -9.028727770935568811e-16 -1.351428510723838921e-16 0.000000000000000000e+00 5.006939911686586076e-16 -1.388233345680431350e-16 0.000000000000000000e+00 8.151791923053441467e-16 1.481635208547020297e-16 0.000000000000000000e+00 8.568857824606133352e-16 -2.154544547944515300e-15 -2.100456228956603367e-15 -9.028727770935568811e-16 -1.351428510723838921e-16 0.000000000000000000e+00 0.000000000000000000e+00 0.000000000000000000e+00 0.000000000000000000e+00 -9.436227524512482335e-16 -1.973395043094640771e-15 0.000000000000000000e+00 3.062954422045331829e-16 4.989261032605401236e-16 -2.100456228956603367e-15 -9.028727770935568811e-16 -1.351428510723838921e-16 0.000000000000000000e+00 0.000000000000000000e+00 0.000000000000000000e+00 0.000000000000000000e+00 7.633857415374766352e-16 -1.432709148097864387e-15 0.000000000000000000e+00 -2.377516584325823940e-15 4.829814568794977348e-16 2.709239083545060545e-02 6.621927305365738446e-03 4.636597973186858124e-02 1.172779318051236919e-01 -5.820691015982577127e-02 -1.916814704259755253e-01 5.774128595385206175e-01 -1.648371920719109707e-01 1.160776940173776639e+00 -1.138070576142673380e-02 1.350025020161845779e-01 -2.460537693390659753e-01 0.000000000000000000e+00 0.000000000000000000e+00 0.000000000000000000e+00 3.286313807113545773e-15 -2.801429747095463739e-15 0.000000000000000000e+00 1.236536005671976472e-15 -2.732900192591072276e-15 0.000000000000000000e+00 -3.005294832745394499e-16 -1.882317103822586410e-16 -4.079365599190062767e-16 0.000000000000000000e+00 0.000000000000000000e+00 0.000000000000000000e+00 0.000000000000000000e+00 1.367143525080656710e-16 4.981088659142477128e-16 0.000000000000000000e+00 -1.927971756625808285e-16 1.503824906147454939e-15 -3.005294832745394499e-16 -1.882317103822586410e-16 -4.079365599190062767e-16 0.000000000000000000e+00 5.006743864869657376e-16 4.282761935270347509e-16 0.000000000000000000e+00 8.044261360744712931e-16 1.080022296915102361e-15 0.000000000000000000e+00 1.558516991228410336e-15 2.604581459547394552e-16 -3.005294832745394499e-16 -1.882317103822586410e-16 -4.079365599190062767e-16 0.000000000000000000e+00 0.000000000000000000e+00 0.000000000000000000e+00 0.000000000000000000e+00 8.511424240822078844e-16 4.418246120085359647e-16 0.000000000000000000e+00 -2.135620365045540658e-16 9.716045521714508908e-16 -3.005294832745394499e-16 -1.882317103822586410e-16 -4.079365599190062767e-16 0.000000000000000000e+00 0.000000000000000000e+00 0.000000000000000000e+00 0.000000000000000000e+00 2.359321445575609698e-15 -4.319542460835234515e-16 0.000000000000000000e+00 1.396016637960498112e-15 -7.716883307834659125e-16
3.000000000000000000e+02 0.000000000000000000e+00 0.000000000000000000e+00 0.000000000000000000e+00 0.000000000000000000e+00 0.000000000000000000e+00 -1.185422053613231254e-04 -3.583991611557030624e-03 -1.306971239666275195e-02 -3.639225889885514681e-02 4.580392466935945608e-03 8.255597655773733862e-03 1.173931633742856806e-01 -1.164222406451480285e-01 -2.030148001407658387e-01 -1.152832294215638403e-01 1.638737667871272563e-01 1.002146830141108363e-01 1.467342467755376398e-02 2.775054084629610500e-03 3.705251688505908914e-02 3.037683523080294754e-02 1.000950501905279455e-01 -1.311878750276442365e-02 -5.312065343707283310e-02 -9.321166701933022991e-02 -1.590033664373183275e-02 8.324295855970147845e-03 -1.020956421081098582e-02 -4.024607359458778899e-02 2.094151411590226570e-03 2.525623196541862056e-03 -1.212450900197917583e-02 3.891870595792933617e-03 4.337450767201218860e-03 -1.905598244025375962e-02 -1.425768920642816323e-03 2.567106342621141299e-04 1.825445348742254451e-03 -2.004507296638127680e-03 -6.064597185627302288e-03 -1.601179208851138264e-02 -3.839802294702267249e-02 2.122504876392504458e-02 7.868051612635663938e-02 -7.796536853451995451e-03 2.639491541324349294e-02 6.623013896357500020e-03 -4.151856657295111691e-02 1.125248582522206942e-01 6.491470984402064603e-02 -3.011700482321971184e-01 -4.759484653327865078e-01 2.229312622870924521e-01 -6.428687131202917571e-02 -6.497486091675750419e-01 -3.672003875723257593e-01 0.000000000000000000e+00 0.000000000000000000e+00 0.000000000000000000e+00 -3.183998012726774270e-15 -7.148006505286288867e-16 0.000000000000000000e+00 -3.737077435486999378e-15 -9.376341173420965340e-16 0.000000000000000000e+00 -2.256761587773598382e-15 -7.980027183220841312e-16 -2.015245010863631282e-16 0.000000000000000000e+00 0.000000000000000000e+00 0.000000000000000000e+00 0.000000000000000000e+00 3.318624611372503623e-16 1.203657383573607346e-15 0.000000000000000000e+00 2.544743628632297957e-16 3.399950051852456572e-16 -2.256761587773598382e-15 -7.980027183220841312e-16 -2.015245010863631282e-16 0.000000000000000000e+00 1.686781515709578700e-15 -2.576211785141808231e-17 0.000000000000000000e+00 1.016155718293605421e-15 1.099482219143736319e-15 0.000000000000000000e+00 7.026215534616715439e-17 -4.597881955759702755e-16 -2.256761587773598382e-15 -7.980027183220841312e-16 -2.015245010863631282e-16 0.000000000000000000e+00 0.000000000000000000e+00 0.000000000000000000e+00 0.000000000000000000e+00 -1.119919048119937226e-15 -1.230706210428063662e-15 0.000000000000000000e+00 3.818750877448871280e-16 5.440703177528907863e-16 -2.256761587773598382e-15 -7.980027183220841312e-16 -2.015245010863631282e-16 0.000000000000000000e+00 0.000000000000000000e+00 0.000000000000000000e+00 0.000000000000000000e+00 5.345852932059115252e-16 -1.197548332638535619e-15 0.000000000000000000e+00 -3.899844688797226168e-16 1.544244303419958778e-15 2.142255071263593838e-02 -3.268229543112764930e-03 6.605848690965487879e-02 -1.217516197614034734e-01 6.331735511063513178e-02 1.760663875376186072e-01 5.549510463346722933e-01 -9.439590547102597040e-02 8.117079158899431768e-01 -8.821901350601971115e-03 7.385570591081953851e-02 -1.692496228686841686e-01 0.000000000000000000e+00 0.000000000000000000e+00 0.000000000000000000e+00 4.189765740721642677e-16 5.886971399400033350e-17 0.000000000000000000e+00 2.135690356582209674e-16 -3.492938576010342948e-16 0.000000000000000000e+00 -9.272201214342639893e-16 -3.976632094020695164e-16 -1.499227410439394765e-16 0.000000000000000000e+00 0.000000000000000000e+00 0.000000000000000000e+00 0.000000000000000000e+00 1.425583843218769610e-16 6.460626354879679672e-16 0.000000000000000000e+00 -4.975159226330294513e-16 8.449742151093267858e-16 -9.272201214342639893e-16 -3.976632094020695164e-16 -1.499227410439394765e-16 0.000000000000000000e+00 3.268775150202871382e-16 2.656311030026173891e-16 0.000000000000000000e+00 2.022144347661205072e-15 1.158825463676801563e-15 0.000000000000000000e+00 5.625994680845235549e-16 8.057084672154139033e-16 -9.272201214342639893e-16 -3.976632094020695164e-16 -1.499227410439394765e-16 0.000000000000000000e+00 0.000000000000000000e+00 0.000000000000000000e+00 0.000000000000000000e+00 1.810057502656023747e-16 9.058659588914766848e-16 0.000000000000000000e+00 2.447230226528049792e-16 1.408771789453404083e-15 -9.272201214342639893e-16 -3.976632094020695164e-16 -1.499227410439394765e-16 0.000000000000000000e+00 0.000000000000000000e+00 0.000000000000000000e+00 0.000000000000000000e+00 2.349021956045087365e-15 8.722792370668713696e-16 0.000000000000000000e+00 1.282428346332353644e-15 1.115261573461778540e-17
